<?xml version="1.0" encoding="UTF-8" standalone="no"?>
<!-- Created with Inkscape (http://www.inkscape.org/) -->

<svg
   version="1.1"
   id="svg1"
   width="137.61732"
   height="137.61732"
   viewBox="0 0 137.61732 137.61732"
   xmlns="http://www.w3.org/2000/svg"
   xmlns:svg="http://www.w3.org/2000/svg">
  <defs
     id="defs1" />
  <g
     id="g1">
    <path
       id="path1"
       d="M -34.02261,34.02261 -17.01126,0"
       style="fill:none;stroke:#000000;stroke-width:2.49069;stroke-linecap:butt;stroke-linejoin:miter;stroke-miterlimit:10;stroke-dasharray:none;stroke-opacity:1"
       transform="matrix(1.3333333,0,0,-1.3333333,68.809333,68.808)" />
    <path
       id="path2"
       d="M -34.02261,34.02261 17.01126,0"
       style="fill:none;stroke:#000000;stroke-width:2.49069;stroke-linecap:butt;stroke-linejoin:miter;stroke-miterlimit:10;stroke-dasharray:none;stroke-opacity:1"
       transform="matrix(1.3333333,0,0,-1.3333333,68.809333,68.808)" />
    <path
       id="path3"
       d="M 0,34.02261 -17.01126,0"
       style="fill:none;stroke:#000000;stroke-width:2.49069;stroke-linecap:butt;stroke-linejoin:miter;stroke-miterlimit:10;stroke-dasharray:none;stroke-opacity:1"
       transform="matrix(1.3333333,0,0,-1.3333333,68.809333,68.808)" />
    <path
       id="path4"
       d="M 0,34.02261 17.01126,0"
       style="fill:none;stroke:#000000;stroke-width:2.49069;stroke-linecap:butt;stroke-linejoin:miter;stroke-miterlimit:10;stroke-dasharray:none;stroke-opacity:1"
       transform="matrix(1.3333333,0,0,-1.3333333,68.809333,68.808)" />
    <path
       id="path5"
       d="M 34.02261,34.02261 -17.01126,0"
       style="fill:none;stroke:#000000;stroke-width:2.49069;stroke-linecap:butt;stroke-linejoin:miter;stroke-miterlimit:10;stroke-dasharray:none;stroke-opacity:1"
       transform="matrix(1.3333333,0,0,-1.3333333,68.809333,68.808)" />
    <path
       id="path6"
       d="M 34.02261,34.02261 17.01126,0"
       style="fill:none;stroke:#000000;stroke-width:2.49069;stroke-linecap:butt;stroke-linejoin:miter;stroke-miterlimit:10;stroke-dasharray:none;stroke-opacity:1"
       transform="matrix(1.3333333,0,0,-1.3333333,68.809333,68.808)" />
    <path
       id="path7"
       d="M -17.01126,0 -34.02261,-34.02261"
       style="fill:none;stroke:#000000;stroke-width:2.49069;stroke-linecap:butt;stroke-linejoin:miter;stroke-miterlimit:10;stroke-dasharray:none;stroke-opacity:1"
       transform="matrix(1.3333333,0,0,-1.3333333,68.809333,68.808)" />
    <path
       id="path8"
       d="M -17.01126,0 0,-34.02261"
       style="fill:none;stroke:#000000;stroke-width:2.49069;stroke-linecap:butt;stroke-linejoin:miter;stroke-miterlimit:10;stroke-dasharray:none;stroke-opacity:1"
       transform="matrix(1.3333333,0,0,-1.3333333,68.809333,68.808)" />
    <path
       id="path9"
       d="M -17.01126,0 34.02261,-34.02261"
       style="fill:none;stroke:#000000;stroke-width:2.49069;stroke-linecap:butt;stroke-linejoin:miter;stroke-miterlimit:10;stroke-dasharray:none;stroke-opacity:1"
       transform="matrix(1.3333333,0,0,-1.3333333,68.809333,68.808)" />
    <path
       id="path10"
       d="M 17.01126,0 -34.02261,-34.02261"
       style="fill:none;stroke:#000000;stroke-width:2.49069;stroke-linecap:butt;stroke-linejoin:miter;stroke-miterlimit:10;stroke-dasharray:none;stroke-opacity:1"
       transform="matrix(1.3333333,0,0,-1.3333333,68.809333,68.808)" />
    <path
       id="path11"
       d="M 17.01126,0 0,-34.02261"
       style="fill:none;stroke:#000000;stroke-width:2.49069;stroke-linecap:butt;stroke-linejoin:miter;stroke-miterlimit:10;stroke-dasharray:none;stroke-opacity:1"
       transform="matrix(1.3333333,0,0,-1.3333333,68.809333,68.808)" />
    <path
       id="path12"
       d="M 17.01126,0 34.02261,-34.02261"
       style="fill:none;stroke:#000000;stroke-width:2.49069;stroke-linecap:butt;stroke-linejoin:miter;stroke-miterlimit:10;stroke-dasharray:none;stroke-opacity:1"
       transform="matrix(1.3333333,0,0,-1.3333333,68.809333,68.808)" />
    <path
       id="path13"
       d="m -27.4472,34.02261 c 0,3.63155 -2.94387,6.57541 -6.57541,6.57541 -3.63155,0 -6.57541,-2.94386 -6.57541,-6.57541 0,-3.63154 2.94386,-6.57541 6.57541,-6.57541 3.63154,0 6.57541,2.94387 6.57541,6.57541 z"
       style="fill:#000000;fill-opacity:1;fill-rule:nonzero;stroke:none"
       transform="matrix(1.3333333,0,0,-1.3333333,68.809333,68.808)" />
    <path
       id="path14"
       d="m 6.5754,34.02261 c 0,3.63155 -2.94387,6.57541 -6.5754,6.57541 -3.63153,0 -6.5754,-2.94386 -6.5754,-6.57541 0,-3.63154 2.94387,-6.57541 6.5754,-6.57541 3.63153,0 6.5754,2.94387 6.5754,6.57541 z"
       style="fill:#000000;fill-opacity:1;fill-rule:nonzero;stroke:none"
       transform="matrix(1.3333333,0,0,-1.3333333,68.809333,68.808)" />
    <path
       id="path15"
       d="m 40.59802,34.02261 c 0,3.63155 -2.94386,6.57541 -6.57541,6.57541 -3.63154,0 -6.57541,-2.94386 -6.57541,-6.57541 0,-3.63154 2.94387,-6.57541 6.57541,-6.57541 3.63155,0 6.57541,2.94387 6.57541,6.57541 z"
       style="fill:#000000;fill-opacity:1;fill-rule:nonzero;stroke:none"
       transform="matrix(1.3333333,0,0,-1.3333333,68.809333,68.808)" />
    <path
       id="path16"
       d="m -10.43587,0 c 0,3.63153 -2.94386,6.5754 -6.57539,6.5754 -3.63154,0 -6.57541,-2.94387 -6.57541,-6.5754 0,-3.63153 2.94387,-6.5754 6.57541,-6.5754 3.63153,0 6.57539,2.94387 6.57539,6.5754 z"
       style="fill:#000000;fill-opacity:1;fill-rule:nonzero;stroke:none"
       transform="matrix(1.3333333,0,0,-1.3333333,68.809333,68.808)" />
    <path
       id="path17"
       d="m 23.58667,0 c 0,3.63153 -2.94387,6.5754 -6.57541,6.5754 -3.63153,0 -6.57539,-2.94387 -6.57539,-6.5754 0,-3.63153 2.94386,-6.5754 6.57539,-6.5754 3.63154,0 6.57541,2.94387 6.57541,6.5754 z"
       style="fill:#000000;fill-opacity:1;fill-rule:nonzero;stroke:none"
       transform="matrix(1.3333333,0,0,-1.3333333,68.809333,68.808)" />
    <path
       id="path18"
       d="m -27.4472,-34.02261 c 0,3.63154 -2.94387,6.57541 -6.57541,6.57541 -3.63155,0 -6.57541,-2.94387 -6.57541,-6.57541 0,-3.63155 2.94386,-6.57541 6.57541,-6.57541 3.63154,0 6.57541,2.94386 6.57541,6.57541 z"
       style="fill:#000000;fill-opacity:1;fill-rule:nonzero;stroke:none"
       transform="matrix(1.3333333,0,0,-1.3333333,68.809333,68.808)" />
    <path
       id="path19"
       d="m 6.5754,-34.02261 c 0,3.63154 -2.94387,6.57541 -6.5754,6.57541 -3.63153,0 -6.5754,-2.94387 -6.5754,-6.57541 0,-3.63155 2.94387,-6.57541 6.5754,-6.57541 3.63153,0 6.5754,2.94386 6.5754,6.57541 z"
       style="fill:#000000;fill-opacity:1;fill-rule:nonzero;stroke:none"
       transform="matrix(1.3333333,0,0,-1.3333333,68.809333,68.808)" />
    <path
       id="path20"
       d="m 40.59802,-34.02261 c 0,3.63154 -2.94386,6.57541 -6.57541,6.57541 -3.63154,0 -6.57541,-2.94387 -6.57541,-6.57541 0,-3.63155 2.94387,-6.57541 6.57541,-6.57541 3.63155,0 6.57541,2.94386 6.57541,6.57541 z"
       style="fill:#000000;fill-opacity:1;fill-rule:nonzero;stroke:none"
       transform="matrix(1.3333333,0,0,-1.3333333,68.809333,68.808)" />
  </g>
</svg>
